<?xml version="1.0" encoding="UTF-8"?>
<svg width="41" height="47" viewBox="0 0 652.47 752.68" fill="none" xmlns="http://www.w3.org/2000/svg">
  <path d="M581.5,478.17l6.79-1.1c-7.84-28.47-31.88-45.72-56.94-58.12,23.81-45.81,22.51-104.68,2.37-150.65-2.85-18.68,2.86-39.96,2.23-59.25C516.19-75.87,1.28-24.66,63.67,268.23c-21.31,52.59-18.53,101.17,2.47,154.09-20.93,3-51.09,30.5-54.76,51.32-1.31,7.42,6.01-1.3,6.85,2.28C6.58,491.67-.55,512.1.03,531.8l25.05-11.39,4.58,56.99c3.74,4.33,13.8-16.15,18.21-15.95-.67,19.86,7.4,38.64,13.73,57l29.59-22.8c.73,10.61.6,37.08,5.68,45.64,3.29,5.54,7.53-6.69,12.57-4.59,1.59,16.02,9.7,30.74,19.41,43.31,5.86-16.87.51-36.14-.3-53.95-.57-12.61,5.96-29.59-16.79-21.29-2.38-9.81,5.72-32.55-4.58-37.65-9.47-8.5-32.41,20.13-36.46,17.12-10.58-18.12,8.07-77.52-27.36-52.43-1.59-15.65,12.18-38.98-13.7-36.51,2.98-10.85,28.28-24.99,24.93-35.11-1.36-4.11-8.88-1.77-6.67-8.15,13.94-3.71,27.32-23.95,37.43-4.43,5.9,11.39,1.61,21.69,13.78,34.11,10.06,10.26,19.34,7.83,25.7,11.92,22.61,37.41,78.88,51.83,119.14,62.14,15.75,28.72,29.86,60.03,53.97,82.76,18.96-6.75,45.89-64.04,55.95-83.5,43.17-7.42,93.61-25.01,120.55-60.73,9.06-5.84,15.35-2.41,26.11-14.94,12.04-14.02,7.65-27.28,19.72-40.74,3.64-2.14,27.64,10.35,29.27,14.53,0,0-.17,3.21-.17,3.21-18.84,9.39,15.3,26.77,18.43,38.92-26.2-2.51-10.8,20.61-13.7,36.51-25.48-22.84-20.16,19.48-23.13,37.27-1.42,6.7-1.22,18.56-9.91,12.89-9.23-6.02-27.96-26.01-36.03-8.47-2.55,5.55,3.01,23.63.66,31.27-23.77-6.92-15.17,11.34-15.76,23.98-.78,16.73-4.39,33.94-2.44,51.27,11.77-10.15,19.36-27.67,20.52-43.32l13.65,6.83,4.6-47.87,29.59,22.8,16.02-54.71,15.91,15.96c3.36-19.68,5.86-39.2,4.59-59.28l25.05,11.39c1.69-19.32-5.97-37.54-15.91-53.63Z" fill="#305980"/>
</svg>